<?xml version="1.0" encoding="iso-8859-1"?>
<!-- Generator: Adobe Illustrator 19.0.0, SVG Export Plug-In . SVG Version: 6.00 Build 0)  -->
<svg version="1.1" id="Layer_1" xmlns="http://www.w3.org/2000/svg" xmlns:xlink="http://www.w3.org/1999/xlink" x="0px" y="0px"
	 viewBox="0 0 512 512" style="enable-background:new 0 0 512 512;" xml:space="preserve">
<path style="fill:#2D2D2D;" d="M387.199,512H124.8c-6.56-0.161-11.84-5.44-12-12V12c0.16-6.56,5.439-11.839,12-12h262.4
	c6.56,0.161,11.84,5.44,12,12v488C399.039,506.56,393.76,511.84,387.199,512z"/>
<rect x="127.998" y="40.8" style="fill:#FFFFFF;" width="255.998" height="409.596"/>
<g>
	<path style="fill:#BCBCBC;" d="M288,25.6h-64c-2.082,0.128-3.873-1.456-4-3.537c-0.009-0.154-0.009-0.308,0-0.462v-2.4
		c-0.128-2.082,1.456-3.873,3.537-4c0.154-0.009,0.308-0.009,0.462,0h64c2.082-0.128,3.873,1.456,4,3.537
		c0.009,0.154,0.009,0.308,0,0.462v2.4c0.128,2.082-1.456,3.873-3.537,4C288.308,25.609,288.154,25.609,288,25.6z"/>
	<path style="fill:#BCBCBC;" d="M288,481.6h-64c-2.082,0.128-3.873-1.456-4-3.537c-0.009-0.154-0.009-0.308,0-0.462v-2.4
		c-0.128-2.082,1.456-3.873,3.537-4c0.154-0.009,0.308-0.009,0.462,0h64c2.082-0.128,3.873,1.456,4,3.537
		c0.009,0.154,0.009,0.308,0,0.462v2.4C291.859,479.748,290.148,481.46,288,481.6z"/>
</g>
<g>
	<rect x="155.251" y="206.311" style="fill:#E81241;" width="78.573" height="78.573"/>
	<rect x="155.251" y="324.226" style="fill:#E81241;" width="78.573" height="78.573"/>
</g>
<rect id="SVGCleanerId_0" x="255.708" y="223.638" style="fill:#999999;" width="101.036" height="8"/>
<rect id="SVGCleanerId_1" x="255.708" y="253.804" style="fill:#999999;" width="64.264" height="8"/>
<g>
	<rect id="SVGCleanerId_0_1_" x="255.708" y="223.638" style="fill:#999999;" width="101.036" height="8"/>
</g>
<g>
	<rect id="SVGCleanerId_1_1_" x="255.708" y="253.804" style="fill:#999999;" width="64.264" height="8"/>
</g>
<g>
	<rect x="255.708" y="341.545" style="fill:#999999;" width="101.036" height="8"/>
	<rect x="255.708" y="371.701" style="fill:#999999;" width="64.264" height="8"/>
	<rect x="255.708" y="105.732" style="fill:#999999;" width="101.036" height="8"/>
	<rect x="255.708" y="135.879" style="fill:#999999;" width="64.264" height="8"/>
</g>
<rect x="155.251" y="88.404" style="fill:#E81241;" width="78.573" height="78.573"/>
<g>
	<path style="fill:#FFFFFF;" d="M191.632,274.328v-6.888c-3.691-0.014-7.305-1.052-10.44-3l1.64-4.576
		c2.925,1.902,6.336,2.921,9.824,2.936c4.848,0,8.12-2.8,8.12-6.688c0-3.752-2.664-6.072-7.712-8.12
		c-6.96-2.736-11.256-5.864-11.256-11.808c0.089-5.772,4.55-10.531,10.304-10.992v-6.888h4.232v6.616
		c3.111,0.032,6.162,0.858,8.864,2.4l-1.704,4.504c-2.599-1.548-5.575-2.351-8.6-2.32c-5.256,0-7.2,3.136-7.2,5.864
		c0,3.544,2.52,5.32,8.464,7.784c7.024,2.856,10.576,6.4,10.576,12.488c-0.113,6.05-4.759,11.047-10.784,11.6v7.096L191.632,274.328
		z"/>
	<path style="fill:#FFFFFF;" d="M191.632,391.416v-6.888c-3.691-0.014-7.305-1.052-10.44-3l1.64-4.576
		c2.925,1.902,6.336,2.921,9.824,2.936c4.848,0,8.12-2.8,8.12-6.688c0-3.752-2.664-6.072-7.712-8.12
		c-6.96-2.736-11.256-5.864-11.256-11.808c0.089-5.772,4.55-10.531,10.304-10.992v-6.888h4.232v6.616
		c3.111,0.032,6.162,0.858,8.864,2.4l-1.704,4.504c-2.599-1.548-5.575-2.351-8.6-2.32c-5.256,0-7.2,3.136-7.2,5.864
		c0,3.544,2.52,5.32,8.464,7.784c7.024,2.856,10.576,6.4,10.576,12.488c-0.113,6.05-4.759,11.047-10.784,11.6v7.096L191.632,391.416
		z"/>
	<path style="fill:#FFFFFF;" d="M191.632,155.056v-6.896c-3.691-0.014-7.305-1.052-10.44-3l1.64-4.576
		c2.925,1.902,6.336,2.921,9.824,2.936c4.848,0,8.12-2.8,8.12-6.688c0-3.752-2.664-6.072-7.712-8.12
		c-6.96-2.736-11.256-5.864-11.256-11.808c0.089-5.772,4.55-10.531,10.304-10.992v-6.888h4.232v6.616
		c3.111,0.032,6.162,0.858,8.864,2.4l-1.704,4.504c-2.599-1.548-5.575-2.351-8.6-2.32c-5.256,0-7.2,3.136-7.2,5.864
		c0,3.544,2.52,5.32,8.464,7.784c7.024,2.856,10.576,6.4,10.576,12.488c-0.113,6.05-4.759,11.047-10.784,11.6v7.096H191.632z"/>
</g>
<g>
</g>
<g>
</g>
<g>
</g>
<g>
</g>
<g>
</g>
<g>
</g>
<g>
</g>
<g>
</g>
<g>
</g>
<g>
</g>
<g>
</g>
<g>
</g>
<g>
</g>
<g>
</g>
<g>
</g>
</svg>
