<?xml version="1.0" encoding="iso-8859-1"?>
<!-- Generator: Adobe Illustrator 19.0.0, SVG Export Plug-In . SVG Version: 6.00 Build 0)  -->
<svg version="1.1" id="Capa_1" xmlns="http://www.w3.org/2000/svg" xmlns:xlink="http://www.w3.org/1999/xlink" x="0px" y="0px"
	 viewBox="0 0 437.339 437.339" style="enable-background:new 0 0 437.339 437.339;" xml:space="preserve">
<g>
	<g>
		<polygon points="226.169,82.8 211.169,82.8 211.169,98.218 195.751,98.218 195.751,113.218 211.169,113.218 211.169,128.635 
			226.169,128.635 226.169,113.218 241.587,113.218 241.587,98.218 226.169,98.218 		"/>
		<rect x="63.157" y="179.521" width="311.025" height="15"/>
		<rect x="63.157" y="212.533" width="311.025" height="15"/>
		<rect x="63.157" y="245.546" width="311.025" height="15"/>
		<rect x="63.157" y="278.558" width="311.025" height="15"/>
		<rect x="63.157" y="146.509" width="77.756" height="15"/>
		<rect x="296.427" y="146.509" width="77.756" height="15"/>
		<rect x="276.783" y="311.57" width="97.399" height="15"/>
		<rect x="276.783" y="344.582" width="97.399" height="15"/>
		<rect x="63.157" y="311.57" width="97.399" height="15"/>
		<rect x="63.157" y="344.582" width="97.399" height="15"/>
		<path d="M429.839,372.411h-24.417V119.634c0-4.142-3.357-7.5-7.5-7.5H274.46V57.427c0-4.142-3.357-7.5-7.5-7.5h-96.582
			c-4.143,0-7.5,3.358-7.5,7.5v54.707H39.418c-4.143,0-7.5,3.358-7.5,7.5v252.777H7.5c-4.143,0-7.5,3.358-7.5,7.5s3.357,7.5,7.5,7.5
			h422.339c4.143,0,7.5-3.358,7.5-7.5S433.981,372.411,429.839,372.411z M177.878,64.927h81.582v81.582h-81.582L177.878,64.927
			L177.878,64.927z M193.43,372.411v-45.766h17.74v45.766H193.43z M226.17,372.411v-45.766h17.739v45.766H226.17z M258.909,372.411
			v-53.266c0-4.142-3.357-7.5-7.5-7.5H185.93c-4.143,0-7.5,3.358-7.5,7.5v53.266H46.918V127.134h115.96v26.875
			c0,4.142,3.357,7.5,7.5,7.5h96.582c4.143,0,7.5-3.358,7.5-7.5v-26.875h115.962v245.277H258.909z"/>
	</g>
</g>
<g>
</g>
<g>
</g>
<g>
</g>
<g>
</g>
<g>
</g>
<g>
</g>
<g>
</g>
<g>
</g>
<g>
</g>
<g>
</g>
<g>
</g>
<g>
</g>
<g>
</g>
<g>
</g>
<g>
</g>
</svg>
